<svg width="20" height="21" viewBox="0 0 20 21" fill="none" xmlns="http://www.w3.org/2000/svg">
<g clip-path="url(#clip0_2138_3704)">
<g clip-path="url(#clip1_2138_3704)">
<path d="M6.60547 16.0234C6.60547 16.1016 6.51562 16.1641 6.40234 16.1641C6.27344 16.1758 6.18359 16.1133 6.18359 16.0234C6.18359 15.9453 6.27344 15.8828 6.38672 15.8828C6.50391 15.8711 6.60547 15.9336 6.60547 16.0234ZM5.39063 15.8477C5.36328 15.9258 5.44141 16.0156 5.55859 16.0391C5.66016 16.0781 5.77734 16.0391 5.80078 15.9609C5.82422 15.8828 5.75 15.793 5.63281 15.7578C5.53125 15.7305 5.41797 15.7695 5.39063 15.8477ZM7.11719 15.7813C7.00391 15.8086 6.92578 15.8828 6.9375 15.9727C6.94922 16.0508 7.05078 16.1016 7.16797 16.0742C7.28125 16.0469 7.35937 15.9727 7.34766 15.8945C7.33594 15.8203 7.23047 15.7695 7.11719 15.7813ZM9.6875 0.8125C4.26953 0.8125 0.125 4.92578 0.125 10.3438C0.125 14.6758 2.85156 18.3828 6.74609 19.6875C7.24609 19.7773 7.42188 19.4688 7.42188 19.2148C7.42188 18.9727 7.41016 17.6367 7.41016 16.8164C7.41016 16.8164 4.67578 17.4023 4.10156 15.6523C4.10156 15.6523 3.65625 14.5156 3.01562 14.2227C3.01562 14.2227 2.12109 13.6094 3.07812 13.6211C3.07812 13.6211 4.05078 13.6992 4.58594 14.6289C5.44141 16.1367 6.875 15.7031 7.43359 15.4453C7.52344 14.8203 7.77734 14.3867 8.05859 14.1289C5.875 13.8867 3.67188 13.5703 3.67188 9.8125C3.67188 8.73828 3.96875 8.19922 4.59375 7.51172C4.49219 7.25781 4.16016 6.21094 4.69531 4.85937C5.51172 4.60547 7.39062 5.91406 7.39062 5.91406C8.17188 5.69531 9.01172 5.58203 9.84375 5.58203C10.6758 5.58203 11.5156 5.69531 12.2969 5.91406C12.2969 5.91406 14.1758 4.60156 14.9922 4.85937C15.5273 6.21484 15.1953 7.25781 15.0938 7.51172C15.7188 8.20313 16.1016 8.74219 16.1016 9.8125C16.1016 13.582 13.8008 13.8828 11.6172 14.1289C11.9766 14.4375 12.2813 15.0234 12.2813 15.9414C12.2813 17.2578 12.2695 18.8867 12.2695 19.207C12.2695 19.4609 12.4492 19.7695 12.9453 19.6797C16.8516 18.3828 19.5 14.6758 19.5 10.3438C19.5 4.92578 15.1055 0.8125 9.6875 0.8125ZM3.92187 14.2852C3.87109 14.3242 3.88281 14.4141 3.94922 14.4883C4.01172 14.5508 4.10156 14.5781 4.15234 14.5273C4.20312 14.4883 4.19141 14.3984 4.125 14.3242C4.0625 14.2617 3.97266 14.2344 3.92187 14.2852ZM3.5 13.9687C3.47266 14.0195 3.51172 14.082 3.58984 14.1211C3.65234 14.1602 3.73047 14.1484 3.75781 14.0938C3.78516 14.043 3.74609 13.9805 3.66797 13.9414C3.58984 13.918 3.52734 13.9297 3.5 13.9687ZM4.76563 15.3594C4.70313 15.4102 4.72656 15.5273 4.81641 15.6016C4.90625 15.6914 5.01953 15.7031 5.07031 15.6406C5.12109 15.5898 5.09766 15.4727 5.01953 15.3984C4.93359 15.3086 4.81641 15.2969 4.76563 15.3594ZM4.32031 14.7852C4.25781 14.8242 4.25781 14.9258 4.32031 15.0156C4.38281 15.1055 4.48828 15.1445 4.53906 15.1055C4.60156 15.0547 4.60156 14.9531 4.53906 14.8633C4.48438 14.7734 4.38281 14.7344 4.32031 14.7852Z" fill="#1E1E1E"/>
</g>
</g>
<defs>
<clipPath id="clip0_2138_3704">
<rect width="19.375" height="20" fill="white" transform="translate(0.125 0.5)"/>
</clipPath>
<clipPath id="clip1_2138_3704">
<path d="M0.125 0.5H19.5V20.5H0.125V0.5Z" fill="white"/>
</clipPath>
</defs>
</svg>
